<?xml version="1.0" encoding="utf-8"?>
<!-- Generator: Adobe Illustrator 16.0.0, SVG Export Plug-In . SVG Version: 6.00 Build 0)  -->
<!DOCTYPE svg PUBLIC "-//W3C//DTD SVG 1.1//EN" "http://www.w3.org/Graphics/SVG/1.1/DTD/svg11.dtd">
<svg version="1.1" id="Layer_1" xmlns="http://www.w3.org/2000/svg" xmlns:xlink="http://www.w3.org/1999/xlink" x="0px" y="0px"
	 width="55px" height="55px" viewBox="0 0 55 55" enable-background="new 0 0 55 55" xml:space="preserve">
<g>
	
		<path fill="#4D4D4D" stroke="#2C3E50" stroke-width="2.5488" stroke-linecap="round" stroke-linejoin="round" stroke-miterlimit="10" d="
		M8.772,27.473L27.515,8.73l-6.8-6.631c-2.213,0.59-4.583,1.547-6.613,2.721c0.002,0.002,0.005,0.005,0.007,0.007
		c2.679,2.679,2.842,6.723,0.163,9.401c-2.679,2.679-6.779,2.488-9.458-0.19c-0.002-0.002-0.004-0.004-0.006-0.007
		c-1.174,2.03-2.134,4.47-2.726,6.684L2.6,21.232L8.772,27.473z"/>
	
		<path fill="#4D4D4D" stroke="#2C3E50" stroke-width="2.5488" stroke-linecap="round" stroke-linejoin="round" stroke-miterlimit="10" d="
		M52.401,33.743l-6.173-6.241L27.486,46.245l6.8,6.631c2.213-0.591,4.583-1.547,6.612-2.721c-0.002-0.002-0.004-0.004-0.007-0.007
		c-2.678-2.678-2.841-6.723-0.163-9.401c2.679-2.679,6.778-2.488,9.458,0.19c0.002,0.002,0.004,0.005,0.007,0.007
		c1.174-2.03,2.134-4.47,2.725-6.683L52.401,33.743z"/>
	
		<path fill="#4D4D4D" stroke="#2C3E50" stroke-width="2.5488" stroke-linecap="round" stroke-linejoin="round" stroke-miterlimit="10" d="
		M8.743,27.473l-6.631,6.8c0.59,2.213,1.548,4.583,2.721,6.612c0.002-0.002,0.005-0.004,0.007-0.007
		c2.679-2.679,6.723-2.841,9.401-0.162c2.679,2.679,2.488,6.778-0.19,9.457c-0.002,0.002-0.004,0.004-0.007,0.006
		c2.03,1.174,4.47,2.134,6.684,2.726l0.518-0.518l6.241-6.173L8.743,27.473z"/>
	
		<path fill="#4D4D4D" stroke="#2C3E50" stroke-width="2.5488" stroke-linecap="round" stroke-linejoin="round" stroke-miterlimit="10" d="
		M46.258,27.502l6.631-6.8c-0.591-2.213-1.548-4.583-2.721-6.613c-0.002,0.002-0.004,0.005-0.007,0.007
		c-2.678,2.679-6.722,2.842-9.401,0.163C38.08,11.58,38.271,7.48,40.95,4.801c0.002-0.002,0.004-0.004,0.006-0.006
		c-2.03-1.174-4.47-2.134-6.683-2.726l-0.518,0.518L27.515,8.76L46.258,27.502z"/>
</g>
<g>
	
		<path fill="#F39C12" stroke="#FFFFFF" stroke-width="1.0384" stroke-linecap="round" stroke-linejoin="round" stroke-miterlimit="10" d="
		M52.195,33.721L20.772,2.299c-2.176,0.581-4.292,1.449-6.289,2.603c0.002,0.002,0.004,0.004,0.007,0.007
		c2.634,2.634,2.634,6.905,0,9.54s-6.906,2.635-9.54,0c-0.002-0.002-0.004-0.004-0.006-0.007c-1.155,1.996-2.022,4.113-2.604,6.29
		L2.85,21.24l31.423,31.422c2.177-0.582,4.292-1.449,6.289-2.604c-0.002-0.002-0.004-0.004-0.006-0.007
		c-2.634-2.634-2.634-6.905,0-9.54s6.905-2.634,9.54,0c0.002,0.002,0.004,0.004,0.006,0.006c1.154-1.996,2.022-4.111,2.604-6.289
		L52.195,33.721z"/>
	
		<path fill="#3498DB" stroke="#FFFFFF" stroke-width="1.0384" stroke-linecap="round" stroke-linejoin="round" stroke-miterlimit="10" d="
		M21.282,52.153l31.423-31.422c-0.582-2.177-1.45-4.294-2.604-6.29c-0.002,0.002-0.004,0.005-0.006,0.007
		c-2.634,2.634-6.905,2.635-9.54,0c-2.634-2.635-2.634-6.906,0-9.54c0.002-0.002,0.004-0.005,0.006-0.007
		c-1.996-1.154-4.112-2.022-6.289-2.603l-0.509,0.509L2.341,34.23c0.582,2.177,1.449,4.292,2.604,6.288
		c0.002-0.002,0.004-0.004,0.006-0.006c2.634-2.634,6.905-2.634,9.54,0s2.634,6.905,0,9.54c-0.002,0.003-0.004,0.005-0.006,0.007
		c1.996,1.154,4.112,2.021,6.289,2.603L21.282,52.153z"/>
</g>
</svg>
